<svg width="33" height="33" viewBox="0 0 33 33" fill="none" xmlns="http://www.w3.org/2000/svg">
<g clip-path="url(#clip0_4_185)">
<path d="M14.4739 1.83705C12.0069 2.18794 9.66842 3.15611 7.67537 4.65177C5.68234 6.14743 4.09923 8.12215 3.0729 10.3928C2.04656 12.6635 1.61022 15.1565 1.80434 17.6408C1.99847 20.125 2.81676 22.52 4.18334 24.6038L1.70178 31.297L10.0116 29.7946C12.1484 30.841 14.5063 31.356 16.8848 31.2957C19.2633 31.2353 21.5921 30.6017 23.6731 29.4483C25.7542 28.295 27.5259 26.6559 28.8377 24.671C30.1494 22.686 30.9622 20.4135 31.2075 18.0469" stroke="white" stroke-width="2.28571" stroke-linecap="round" stroke-linejoin="round"/>
<path d="M25.6065 13.0831C28.7501 13.0831 31.2982 10.5348 31.2982 7.39144C31.2982 4.24802 28.7501 1.69977 25.6065 1.69977C22.4632 1.69977 19.9149 4.24802 19.9149 7.39144C19.9149 10.5348 22.4632 13.0831 25.6065 13.0831Z" stroke="white" stroke-width="2.28571" stroke-linecap="round" stroke-linejoin="round"/>
</g>
<defs>
<clipPath id="clip0_4_185">
<rect width="32" height="32" fill="white" transform="translate(0.5 0.5)"/>
</clipPath>
</defs>
</svg>
