<svg width="33" height="33" viewBox="0 0 33 33" fill="none" xmlns="http://www.w3.org/2000/svg">
<g clip-path="url(#clip0_4_194)">
<path d="M7.92854 14.2143C11.4 14.2143 14.2143 11.4001 14.2143 7.92857C14.2143 4.45707 11.4 1.64285 7.92854 1.64285C4.45704 1.64285 1.64282 4.45707 1.64282 7.92857C1.64282 11.4001 4.45704 14.2143 7.92854 14.2143Z" stroke="white" stroke-width="2.28571" stroke-linecap="round" stroke-linejoin="round"/>
<path d="M25.0714 14.2143C28.5429 14.2143 31.3571 11.4001 31.3571 7.92857C31.3571 4.45707 28.5429 1.64285 25.0714 1.64285C21.5999 1.64285 18.7856 4.45707 18.7856 7.92857C18.7856 11.4001 21.5999 14.2143 25.0714 14.2143Z" stroke="white" stroke-width="2.28571" stroke-linecap="round" stroke-linejoin="round"/>
<path d="M7.92854 31.3571C11.4 31.3571 14.2143 28.543 14.2143 25.0714C14.2143 21.5999 11.4 18.7857 7.92854 18.7857C4.45704 18.7857 1.64282 21.5999 1.64282 25.0714C1.64282 28.543 4.45704 31.3571 7.92854 31.3571Z" stroke="white" stroke-width="2.28571" stroke-linecap="round" stroke-linejoin="round"/>
<path d="M25.0714 31.3571C28.5429 31.3571 31.3571 28.543 31.3571 25.0714C31.3571 21.5999 28.5429 18.7857 25.0714 18.7857C21.5999 18.7857 18.7856 21.5999 18.7856 25.0714C18.7856 28.543 21.5999 31.3571 25.0714 31.3571Z" stroke="white" stroke-width="2.28571" stroke-linecap="round" stroke-linejoin="round"/>
</g>
<defs>
<clipPath id="clip0_4_194">
<rect width="32" height="32" fill="white" transform="translate(0.5 0.5)"/>
</clipPath>
</defs>
</svg>
