<svg width="133" height="127" viewBox="0 0 133 127" fill="none" xmlns="http://www.w3.org/2000/svg">
<circle cx="63" cy="63" r="50" fill="url(#paint0_linear_4_215)"/>
<path d="M22.1842 65.28C20.6376 65.28 19.0776 65.08 17.5042 64.68C15.9309 64.2533 14.5042 63.72 13.2242 63.08C12.7976 64.6 12.3976 66.2667 12.0242 68.08C11.6509 69.8933 11.3042 71.84 10.9842 73.92C10.6909 75.4133 10.3976 76.3867 10.1042 76.84C9.81089 77.2933 9.43755 77.52 8.98422 77.52C8.53089 77.52 8.17089 77.3067 7.90422 76.88C7.63755 76.4267 7.50422 75.5867 7.50422 74.36C7.50422 74.12 7.57089 73.56 7.70422 72.68C7.83755 71.8 8.01089 70.72 8.22422 69.44C8.46422 68.1333 8.71755 66.7333 8.98422 65.24C9.25089 63.72 9.51755 62.2 9.78422 60.68C9.14422 59.9867 8.82422 59.3333 8.82422 58.72C8.82422 58.4267 8.90422 58.1467 9.06422 57.88C9.22422 57.5867 9.55755 57.44 10.0642 57.44C10.1442 57.44 10.2376 57.4533 10.3442 57.48C10.6376 55.88 10.8776 54.4533 11.0642 53.2C11.2776 51.92 11.3976 51 11.4242 50.44C11.4776 49.48 11.6642 48.8133 11.9842 48.44C12.3042 48.04 12.6776 47.84 13.1042 47.84C13.4509 47.84 13.7309 47.9867 13.9442 48.28C14.1576 48.5467 14.2642 49.2267 14.2642 50.32C14.2642 51.0133 14.2109 51.9467 14.1042 53.12C15.4109 50.4533 16.7709 48.56 18.1842 47.44C19.6242 46.32 21.2242 45.76 22.9842 45.76C24.5842 45.76 25.9576 46.2 27.1042 47.08C28.2509 47.9333 29.1309 49.1467 29.7442 50.72C30.3576 52.2933 30.6642 54.1467 30.6642 56.28C30.6642 59.2933 29.9309 61.5467 28.4642 63.04C26.9976 64.5333 24.9042 65.28 22.1842 65.28ZM14.2642 59.76C15.2776 60.3467 16.4109 60.8933 17.6642 61.4C18.9176 61.88 20.2109 62.12 21.5442 62.12C23.7042 62.12 25.2776 61.64 26.2642 60.68C27.2776 59.6933 27.7842 58.1067 27.7842 55.92C27.7842 53.3867 27.3842 51.5867 26.5842 50.52C25.7842 49.4533 24.6909 48.92 23.3042 48.92C21.7309 48.92 20.1576 49.8 18.5842 51.56C17.0109 53.2933 15.5709 56.0267 14.2642 59.76ZM39.477 78.04C38.3304 78.04 37.517 77.8133 37.037 77.36C36.557 76.9067 36.317 76.24 36.317 75.36C36.317 70.9333 37.117 66.3067 38.717 61.48C40.317 56.6267 42.557 51.76 45.437 46.88C45.8104 46.2667 46.1037 45.88 46.317 45.72C46.557 45.56 46.837 45.48 47.157 45.48C47.5304 45.48 47.8637 45.6133 48.157 45.88C48.4504 46.1467 48.597 46.5067 48.597 46.96C48.597 47.2 48.357 47.8533 47.877 48.92C47.397 49.96 46.7837 51.3067 46.037 52.96C45.2904 54.6133 44.4904 56.4667 43.637 58.52C42.8104 60.5467 42.0237 62.6667 41.277 64.88C40.5304 67.0933 39.9304 69.2933 39.477 71.48C40.0904 70.5733 40.8237 69.6 41.677 68.56C42.557 67.52 43.4904 66.48 44.477 65.44C45.4637 64.4 46.4637 63.4533 47.477 62.6C48.517 61.7467 49.517 61.0667 50.477 60.56C51.437 60.0533 52.317 59.8 53.117 59.8C54.157 59.8 55.0637 60.24 55.837 61.12C56.637 61.9733 57.037 63.2667 57.037 65C57.037 66.4667 56.637 67.9733 55.837 69.52C55.037 71.04 53.8637 72.4533 52.317 73.76C50.797 75.04 48.957 76.08 46.797 76.88C44.637 77.6533 42.197 78.04 39.477 78.04ZM39.637 75C41.8504 75 43.8637 74.6267 45.677 73.88C47.4904 73.1333 49.037 72.1867 50.317 71.04C51.6237 69.8667 52.6237 68.6533 53.317 67.4C54.037 66.12 54.397 64.96 54.397 63.92C54.397 63.1733 54.1437 62.8 53.637 62.8C53.0237 62.8 52.237 63.0933 51.277 63.68C50.317 64.2667 49.277 65.04 48.157 66C47.0637 66.96 45.9704 68 44.877 69.12C43.7837 70.2133 42.7704 71.28 41.837 72.32C40.9304 73.36 40.197 74.2533 39.637 75ZM62.7523 79.04C61.739 79.04 60.899 78.5733 60.2323 77.64C59.5923 76.68 59.2723 75.44 59.2723 73.92C59.2723 72.5067 59.619 71.1067 60.3123 69.72C61.0323 68.3333 61.979 67 63.1523 65.72C64.3257 64.44 65.6057 63.2667 66.9923 62.2C68.379 61.1067 69.7657 60.16 71.1523 59.36C72.5657 58.56 73.859 57.9333 75.0323 57.48C76.2057 57.0267 77.139 56.8 77.8323 56.8C78.2057 56.8 78.5123 56.88 78.7523 57.04C78.9923 57.1733 79.1123 57.4267 79.1123 57.8C79.1123 58.04 79.019 58.2667 78.8323 58.48C78.859 58.48 78.8857 58.48 78.9123 58.48C79.499 58.48 79.7923 58.8267 79.7923 59.52C79.7923 59.76 79.699 60.2533 79.5123 61C79.3257 61.72 79.1123 62.6267 78.8723 63.72C78.6323 64.8133 78.419 66.0267 78.2323 67.36C78.0457 68.6667 77.9523 70 77.9523 71.36C77.9523 72.5067 78.3923 73.08 79.2723 73.08C80.259 73.08 81.259 72.8533 82.2723 72.4C83.2857 71.9467 84.2723 71.4 85.2323 70.76C86.1923 70.0933 87.0723 69.44 87.8723 68.8C88.6723 68.1333 89.3523 67.5733 89.9123 67.12C90.4723 66.6667 90.8723 66.44 91.1123 66.44C91.3257 66.44 91.5123 66.5067 91.6723 66.64C91.8323 66.7733 91.9123 66.9867 91.9123 67.28C91.9123 67.5467 91.6457 68.0267 91.1123 68.72C90.579 69.4133 89.8723 70.2 88.9923 71.08C88.1123 71.96 87.1257 72.8133 86.0323 73.64C84.939 74.4667 83.819 75.1467 82.6723 75.68C81.5257 76.2133 80.4323 76.48 79.3923 76.48C78.5923 76.48 77.859 76.24 77.1923 75.76C76.5523 75.2533 76.0323 74.4 75.6323 73.2C75.259 72 75.0723 70.3467 75.0723 68.24V67.24C73.7657 69.4 72.3923 71.3733 70.9523 73.16C69.539 74.9467 68.1257 76.3733 66.7123 77.44C65.3257 78.5067 64.0057 79.04 62.7523 79.04ZM77.0723 59.68C76.939 59.7333 76.7523 59.8133 76.5123 59.92C75.2857 60.48 74.0057 61.1733 72.6723 62C71.3657 62.8267 70.0857 63.7467 68.8323 64.76C67.6057 65.7733 66.499 66.8267 65.5123 67.92C64.5257 69.0133 63.739 70.12 63.1523 71.24C62.5657 72.36 62.2723 73.4533 62.2723 74.52C62.2723 74.8667 62.339 75.1333 62.4723 75.32C62.6323 75.5067 62.899 75.6 63.2723 75.6C63.8057 75.6 64.499 75.2667 65.3523 74.6C66.2057 73.9067 67.139 73 68.1523 71.88C69.1923 70.76 70.2323 69.52 71.2723 68.16C72.3123 66.8 73.299 65.4267 74.2323 64.04C75.1923 62.6533 76.019 61.3733 76.7123 60.2C76.819 60.0133 76.939 59.84 77.0723 59.68ZM94.7183 78.88C94.1316 78.88 93.6783 78.7067 93.3583 78.36C93.0649 78.04 92.9183 77.6667 92.9183 77.24C92.9183 76.8667 93.0783 76.52 93.3983 76.2C93.7449 75.8533 94.2116 75.5467 94.7983 75.28C95.8649 74.72 96.8649 74.16 97.7983 73.6C98.7583 73.04 99.5316 72.44 100.118 71.8C100.705 71.16 100.998 70.48 100.998 69.76C100.998 69.1467 100.798 68.68 100.398 68.36C99.9983 68.0133 99.4516 67.84 98.7583 67.84C98.3583 67.84 97.7983 67.92 97.0783 68.08C96.3583 68.2133 95.5716 68.3733 94.7183 68.56C93.8916 68.72 93.0783 68.88 92.2783 69.04C91.4783 69.1733 90.7983 69.24 90.2383 69.24C89.2249 69.24 88.4649 69 87.9583 68.52C87.4516 68.0133 87.1983 67.3333 87.1983 66.48C87.1983 66.0533 87.4516 65.4133 87.9583 64.56C88.4649 63.7067 89.1316 62.76 89.9583 61.72C90.8116 60.6533 91.7449 59.5867 92.7583 58.52C93.7716 57.4533 94.7983 56.4667 95.8383 55.56C96.9049 54.6533 97.8916 53.92 98.7983 53.36C99.7316 52.8 100.505 52.52 101.118 52.52C101.732 52.52 102.198 52.72 102.518 53.12C102.838 53.52 102.998 54.0267 102.998 54.64C102.998 55.12 102.918 55.5333 102.758 55.88C102.598 56.2 102.265 56.4533 101.758 56.64C101.278 56.8267 100.532 56.9333 99.5183 56.96C98.4783 57.7867 97.3716 58.7333 96.1983 59.8C95.0516 60.84 93.9983 61.92 93.0383 63.04C92.1049 64.1333 91.4249 65.1867 90.9983 66.2C91.8783 65.9067 92.9449 65.6533 94.1983 65.44C95.4783 65.2 96.7716 65.08 98.0783 65.08C100.132 65.08 101.652 65.5467 102.638 66.48C103.652 67.3867 104.158 68.5867 104.158 70.08C104.158 71.04 103.852 72.04 103.238 73.08C102.652 74.0933 101.878 75.04 100.918 75.92C99.9583 76.8 98.9316 77.5067 97.8383 78.04C96.7449 78.6 95.7049 78.88 94.7183 78.88ZM124.493 60.76C124.493 61.6133 124.227 62.4533 123.693 63.28C123.16 64.08 122.453 64.8533 121.573 65.6C120.693 66.32 119.72 67 118.653 67.64C117.587 68.28 116.52 68.84 115.453 69.32C114.387 69.8 113.413 70.1867 112.533 70.48C112.32 71.52 112.213 72.44 112.213 73.24C112.213 73.7467 112.333 74.1067 112.573 74.32C112.813 74.5333 113.187 74.64 113.693 74.64C114.813 74.64 116 74.44 117.253 74.04C118.507 73.64 119.787 73.12 121.093 72.48C122.4 71.84 123.653 71.16 124.853 70.44C126.053 69.72 127.147 69.04 128.133 68.4C129.147 67.76 129.987 67.24 130.653 66.84C131.32 66.44 131.76 66.24 131.973 66.24C132.293 66.24 132.533 66.3467 132.693 66.56C132.88 66.7467 132.973 66.9733 132.973 67.24C132.973 67.4533 132.64 67.8667 131.973 68.48C131.333 69.0933 130.467 69.8133 129.373 70.64C128.28 71.44 127.053 72.2667 125.693 73.12C124.333 73.9733 122.92 74.7733 121.453 75.52C120.013 76.2667 118.613 76.8667 117.253 77.32C115.92 77.7733 114.72 78 113.653 78C112.267 78 111.187 77.48 110.413 76.44C109.64 75.4 109.253 73.7867 109.253 71.6C109.253 70.1333 109.44 68.6533 109.813 67.16C110.213 65.6667 110.747 64.24 111.413 62.88C112.107 61.4933 112.867 60.2667 113.693 59.2C114.547 58.1067 115.44 57.2533 116.373 56.64C117.307 56 118.213 55.68 119.093 55.68C120.773 55.68 122.093 56.1467 123.053 57.08C124.013 58.0133 124.493 59.24 124.493 60.76ZM113.373 67.4C114.2 66.8933 115.053 66.36 115.933 65.8C116.813 65.24 117.627 64.6667 118.373 64.08C119.12 63.4933 119.72 62.88 120.173 62.24C120.653 61.5733 120.893 60.8933 120.893 60.2C120.893 59.2133 120.36 58.72 119.293 58.72C118.627 58.72 117.92 59.1467 117.173 60C116.453 60.8267 115.76 61.9067 115.093 63.24C114.427 64.5733 113.853 65.96 113.373 67.4Z" fill="white"/>
<defs>
<linearGradient id="paint0_linear_4_215" x1="63" y1="13" x2="63" y2="113" gradientUnits="userSpaceOnUse">
<stop stop-color="#002DA2"/>
<stop offset="1" stop-color="#50D1BF"/>
</linearGradient>
</defs>
</svg>
