<svg width="33" height="33" viewBox="0 0 33 33" fill="none" xmlns="http://www.w3.org/2000/svg">
<g clip-path="url(#clip0_4_180)">
<path d="M25.0715 13.0714C28.2273 13.0714 30.7857 10.513 30.7857 7.35714C30.7857 4.20123 28.2273 1.64285 25.0715 1.64285C21.9156 1.64285 19.3572 4.20123 19.3572 7.35714C19.3572 10.513 21.9156 13.0714 25.0715 13.0714Z" stroke="white" stroke-width="2.28571" stroke-linecap="round" stroke-linejoin="round"/>
<path d="M23.2032 18.7857V22.291C23.2032 23.185 23.5583 24.0424 24.1905 24.6746C24.8225 25.3066 25.8918 25.6618 26.7857 25.6618H1.64288C2.53688 25.6618 3.60604 25.3066 4.2382 24.6746C4.87033 24.0424 5.22549 23.185 5.22549 22.291L5.22547 14.0603C5.22547 11.6763 6.17251 9.38994 7.85824 7.7042C9.54398 6.01847 11.8303 5.07143 14.2143 5.07143" stroke="white" stroke-width="2.28571" stroke-linecap="round" stroke-linejoin="round"/>
<path d="M11.9286 31.3571H16.5" stroke="white" stroke-width="2.28571" stroke-linecap="round" stroke-linejoin="round"/>
</g>
<defs>
<clipPath id="clip0_4_180">
<rect width="32" height="32" fill="white" transform="translate(0.5 0.5)"/>
</clipPath>
</defs>
</svg>
