<svg width="364" height="31" viewBox="0 0 364 31" fill="none" xmlns="http://www.w3.org/2000/svg">
<path d="M21.3143 4.98L13.0343 20.928V30H8.93028V20.928L0.61428 4.98H5.18628L10.9823 17.256L16.7783 4.98H21.3143ZM33.1752 30.324C31.3032 30.324 29.6112 29.904 28.0992 29.064C26.5872 28.2 25.3992 27 24.5352 25.464C23.6712 23.904 23.2392 22.104 23.2392 20.064C23.2392 18.048 23.6832 16.26 24.5712 14.7C25.4592 13.14 26.6712 11.94 28.2072 11.1C29.7432 10.26 31.4592 9.84 33.3552 9.84C35.2512 9.84 36.9672 10.26 38.5032 11.1C40.0392 11.94 41.2512 13.14 42.1392 14.7C43.0272 16.26 43.4712 18.048 43.4712 20.064C43.4712 22.08 43.0152 23.868 42.1032 25.428C41.1912 26.988 39.9432 28.2 38.3592 29.064C36.7992 29.904 35.0712 30.324 33.1752 30.324ZM33.1752 26.76C34.2312 26.76 35.2152 26.508 36.1272 26.004C37.0632 25.5 37.8192 24.744 38.3952 23.736C38.9712 22.728 39.2592 21.504 39.2592 20.064C39.2592 18.624 38.9832 17.412 38.4312 16.428C37.8792 15.42 37.1472 14.664 36.2352 14.16C35.3232 13.656 34.3392 13.404 33.2832 13.404C32.2272 13.404 31.2432 13.656 30.3312 14.16C29.4432 14.664 28.7352 15.42 28.2072 16.428C27.6792 17.412 27.4152 18.624 27.4152 20.064C27.4152 22.2 27.9552 23.856 29.0352 25.032C30.1392 26.184 31.5192 26.76 33.1752 26.76ZM65.4922 10.164V30H61.3882V27.66C60.7402 28.476 59.8882 29.124 58.8322 29.604C57.8002 30.06 56.6962 30.288 55.5202 30.288C53.9602 30.288 52.5562 29.964 51.3082 29.316C50.0842 28.668 49.1122 27.708 48.3922 26.436C47.6962 25.164 47.3482 23.628 47.3482 21.828V10.164H51.4162V21.216C51.4162 22.992 51.8602 24.36 52.7482 25.32C53.6362 26.256 54.8482 26.724 56.3842 26.724C57.9202 26.724 59.1322 26.256 60.0202 25.32C60.9322 24.36 61.3882 22.992 61.3882 21.216V10.164H65.4922ZM75.0111 13.044C75.6111 12.036 76.4031 11.256 77.3871 10.704C78.3951 10.128 79.5831 9.84 80.9511 9.84V14.088H79.9071C78.2991 14.088 77.0751 14.496 76.2351 15.312C75.4191 16.128 75.0111 17.544 75.0111 19.56V30H70.9071V10.164H75.0111V13.044ZM110.599 18.552C109.207 18.552 107.803 18.372 106.387 18.012C104.971 17.628 103.687 17.148 102.535 16.572C102.151 17.94 101.791 19.44 101.455 21.072C101.119 22.704 100.807 24.456 100.519 26.328C100.255 27.672 99.9911 28.548 99.7271 28.956C99.4631 29.364 99.1271 29.568 98.7191 29.568C98.3111 29.568 97.9871 29.376 97.7471 28.992C97.5071 28.584 97.3871 27.828 97.3871 26.724C97.3871 26.508 97.4471 26.004 97.5671 25.212C97.6871 24.42 97.8431 23.448 98.0351 22.296C98.2511 21.12 98.4791 19.86 98.7191 18.516C98.9591 17.148 99.1991 15.78 99.4391 14.412C98.8631 13.788 98.5751 13.2 98.5751 12.648C98.5751 12.384 98.6471 12.132 98.7911 11.892C98.9351 11.628 99.2351 11.496 99.6911 11.496C99.7631 11.496 99.8471 11.508 99.9431 11.532C100.207 10.092 100.423 8.808 100.591 7.68C100.783 6.528 100.891 5.7 100.915 5.196C100.963 4.332 101.131 3.732 101.419 3.396C101.707 3.036 102.043 2.856 102.427 2.856C102.739 2.856 102.991 2.988 103.183 3.252C103.375 3.492 103.471 4.104 103.471 5.088C103.471 5.712 103.423 6.552 103.327 7.608C104.503 5.208 105.727 3.504 106.999 2.496C108.295 1.488 109.735 0.983998 111.319 0.983998C112.759 0.983998 113.995 1.38 115.027 2.172C116.059 2.94 116.851 4.032 117.403 5.448C117.955 6.864 118.231 8.532 118.231 10.452C118.231 13.164 117.571 15.192 116.251 16.536C114.931 17.88 113.047 18.552 110.599 18.552ZM103.471 13.584C104.383 14.112 105.403 14.604 106.531 15.06C107.659 15.492 108.823 15.708 110.023 15.708C111.967 15.708 113.383 15.276 114.271 14.412C115.183 13.524 115.639 12.096 115.639 10.128C115.639 7.848 115.279 6.228 114.559 5.268C113.839 4.308 112.855 3.828 111.607 3.828C110.191 3.828 108.775 4.62 107.359 6.204C105.943 7.764 104.647 10.224 103.471 13.584ZM126.163 30.036C125.131 30.036 124.399 29.832 123.967 29.424C123.535 29.016 123.319 28.416 123.319 27.624C123.319 23.64 124.039 19.476 125.479 15.132C126.919 10.764 128.935 6.384 131.527 1.992C131.863 1.44 132.127 1.092 132.319 0.947999C132.535 0.803999 132.787 0.731999 133.075 0.731999C133.411 0.731999 133.711 0.851999 133.975 1.092C134.239 1.332 134.371 1.656 134.371 2.064C134.371 2.28 134.155 2.868 133.723 3.828C133.291 4.764 132.739 5.976 132.067 7.464C131.395 8.952 130.675 10.62 129.907 12.468C129.163 14.292 128.455 16.2 127.783 18.192C127.111 20.184 126.571 22.164 126.163 24.132C126.715 23.316 127.375 22.44 128.143 21.504C128.935 20.568 129.775 19.632 130.663 18.696C131.551 17.76 132.451 16.908 133.363 16.14C134.299 15.372 135.199 14.76 136.063 14.304C136.927 13.848 137.719 13.62 138.439 13.62C139.375 13.62 140.191 14.016 140.887 14.808C141.607 15.576 141.967 16.74 141.967 18.3C141.967 19.62 141.607 20.976 140.887 22.368C140.167 23.736 139.111 25.008 137.719 26.184C136.351 27.336 134.695 28.272 132.751 28.992C130.807 29.688 128.611 30.036 126.163 30.036ZM126.307 27.3C128.299 27.3 130.111 26.964 131.743 26.292C133.375 25.62 134.767 24.768 135.919 23.736C137.095 22.68 137.995 21.588 138.619 20.46C139.267 19.308 139.591 18.264 139.591 17.328C139.591 16.656 139.363 16.32 138.907 16.32C138.355 16.32 137.647 16.584 136.783 17.112C135.919 17.64 134.983 18.336 133.975 19.2C132.991 20.064 132.007 21 131.023 22.008C130.039 22.992 129.127 23.952 128.287 24.888C127.471 25.824 126.811 26.628 126.307 27.3ZM147.11 30.936C146.198 30.936 145.442 30.516 144.842 29.676C144.266 28.812 143.978 27.696 143.978 26.328C143.978 25.056 144.29 23.796 144.914 22.548C145.562 21.3 146.414 20.1 147.47 18.948C148.526 17.796 149.678 16.74 150.926 15.78C152.174 14.796 153.422 13.944 154.67 13.224C155.942 12.504 157.106 11.94 158.162 11.532C159.218 11.124 160.058 10.92 160.682 10.92C161.018 10.92 161.294 10.992 161.51 11.136C161.726 11.256 161.834 11.484 161.834 11.82C161.834 12.036 161.75 12.24 161.582 12.432C161.606 12.432 161.63 12.432 161.654 12.432C162.182 12.432 162.446 12.744 162.446 13.368C162.446 13.584 162.362 14.028 162.194 14.7C162.026 15.348 161.834 16.164 161.618 17.148C161.402 18.132 161.21 19.224 161.042 20.424C160.874 21.6 160.79 22.8 160.79 24.024C160.79 25.056 161.186 25.572 161.978 25.572C162.866 25.572 163.766 25.368 164.678 24.96C165.59 24.552 166.478 24.06 167.342 23.484C168.206 22.884 168.998 22.296 169.718 21.72C170.438 21.12 171.05 20.616 171.554 20.208C172.058 19.8 172.418 19.596 172.634 19.596C172.826 19.596 172.994 19.656 173.138 19.776C173.282 19.896 173.354 20.088 173.354 20.352C173.354 20.592 173.114 21.024 172.634 21.648C172.154 22.272 171.518 22.98 170.726 23.772C169.934 24.564 169.046 25.332 168.062 26.076C167.078 26.82 166.07 27.432 165.038 27.912C164.006 28.392 163.022 28.632 162.086 28.632C161.366 28.632 160.706 28.416 160.106 27.984C159.53 27.528 159.062 26.76 158.702 25.68C158.366 24.6 158.198 23.112 158.198 21.216V20.316C157.022 22.26 155.786 24.036 154.49 25.644C153.218 27.252 151.946 28.536 150.674 29.496C149.426 30.456 148.238 30.936 147.11 30.936ZM159.998 13.512C159.878 13.56 159.71 13.632 159.494 13.728C158.39 14.232 157.238 14.856 156.038 15.6C154.862 16.344 153.71 17.172 152.582 18.084C151.478 18.996 150.482 19.944 149.594 20.928C148.706 21.912 147.998 22.908 147.47 23.916C146.942 24.924 146.678 25.908 146.678 26.868C146.678 27.18 146.738 27.42 146.858 27.588C147.002 27.756 147.242 27.84 147.578 27.84C148.058 27.84 148.682 27.54 149.45 26.94C150.218 26.316 151.058 25.5 151.97 24.492C152.906 23.484 153.842 22.368 154.778 21.144C155.714 19.92 156.602 18.684 157.442 17.436C158.306 16.188 159.05 15.036 159.674 13.98C159.77 13.812 159.878 13.656 159.998 13.512ZM175.88 30.792C175.352 30.792 174.944 30.636 174.656 30.324C174.392 30.036 174.26 29.7 174.26 29.316C174.26 28.98 174.404 28.668 174.692 28.38C175.004 28.068 175.424 27.792 175.952 27.552C176.912 27.048 177.812 26.544 178.652 26.04C179.516 25.536 180.212 24.996 180.74 24.42C181.268 23.844 181.532 23.232 181.532 22.584C181.532 22.032 181.352 21.612 180.992 21.324C180.632 21.012 180.14 20.856 179.516 20.856C179.156 20.856 178.652 20.928 178.004 21.072C177.356 21.192 176.648 21.336 175.88 21.504C175.136 21.648 174.404 21.792 173.684 21.936C172.964 22.056 172.352 22.116 171.848 22.116C170.936 22.116 170.252 21.9 169.796 21.468C169.34 21.012 169.112 20.4 169.112 19.632C169.112 19.248 169.34 18.672 169.796 17.904C170.252 17.136 170.852 16.284 171.596 15.348C172.364 14.388 173.204 13.428 174.116 12.468C175.028 11.508 175.952 10.62 176.888 9.804C177.848 8.988 178.736 8.328 179.552 7.824C180.392 7.32 181.088 7.068 181.64 7.068C182.192 7.068 182.612 7.248 182.9 7.608C183.188 7.968 183.332 8.424 183.332 8.976C183.332 9.408 183.26 9.78 183.116 10.092C182.972 10.38 182.672 10.608 182.216 10.776C181.784 10.944 181.112 11.04 180.2 11.064C179.264 11.808 178.268 12.66 177.212 13.62C176.18 14.556 175.232 15.528 174.368 16.536C173.528 17.52 172.916 18.468 172.532 19.38C173.324 19.116 174.284 18.888 175.412 18.696C176.564 18.48 177.728 18.372 178.904 18.372C180.752 18.372 182.12 18.792 183.008 19.632C183.92 20.448 184.376 21.528 184.376 22.872C184.376 23.736 184.1 24.636 183.548 25.572C183.02 26.484 182.324 27.336 181.46 28.128C180.596 28.92 179.672 29.556 178.688 30.036C177.704 30.54 176.768 30.792 175.88 30.792ZM202.677 14.484C202.677 15.252 202.437 16.008 201.957 16.752C201.477 17.472 200.841 18.168 200.049 18.84C199.257 19.488 198.381 20.1 197.421 20.676C196.461 21.252 195.501 21.756 194.541 22.188C193.581 22.62 192.705 22.968 191.913 23.232C191.721 24.168 191.625 24.996 191.625 25.716C191.625 26.172 191.733 26.496 191.949 26.688C192.165 26.88 192.501 26.976 192.957 26.976C193.965 26.976 195.033 26.796 196.161 26.436C197.289 26.076 198.441 25.608 199.617 25.032C200.793 24.456 201.921 23.844 203.001 23.196C204.081 22.548 205.065 21.936 205.953 21.36C206.865 20.784 207.621 20.316 208.221 19.956C208.821 19.596 209.217 19.416 209.409 19.416C209.697 19.416 209.913 19.512 210.057 19.704C210.225 19.872 210.309 20.076 210.309 20.316C210.309 20.508 210.009 20.88 209.409 21.432C208.833 21.984 208.053 22.632 207.069 23.376C206.085 24.096 204.981 24.84 203.757 25.608C202.533 26.376 201.261 27.096 199.941 27.768C198.645 28.44 197.385 28.98 196.161 29.388C194.961 29.796 193.881 30 192.921 30C191.673 30 190.701 29.532 190.005 28.596C189.309 27.66 188.961 26.208 188.961 24.24C188.961 22.92 189.129 21.588 189.465 20.244C189.825 18.9 190.305 17.616 190.905 16.392C191.529 15.144 192.213 14.04 192.957 13.08C193.725 12.096 194.529 11.328 195.369 10.776C196.209 10.2 197.025 9.912 197.817 9.912C199.329 9.912 200.517 10.332 201.381 11.172C202.245 12.012 202.677 13.116 202.677 14.484ZM192.669 20.46C193.413 20.004 194.181 19.524 194.973 19.02C195.765 18.516 196.497 18 197.169 17.472C197.841 16.944 198.381 16.392 198.789 15.816C199.221 15.216 199.437 14.604 199.437 13.98C199.437 13.092 198.957 12.648 197.997 12.648C197.397 12.648 196.761 13.032 196.089 13.8C195.441 14.544 194.817 15.516 194.217 16.716C193.617 17.916 193.101 19.164 192.669 20.46ZM231.327 24.888H220.851L219.051 30H214.767L223.731 4.944H228.483L237.447 30H233.127L231.327 24.888ZM230.175 21.54L226.107 9.912L222.003 21.54H230.175ZM239.977 20.064C239.977 18.024 240.385 16.236 241.201 14.7C242.041 13.14 243.193 11.94 244.657 11.1C246.121 10.26 247.801 9.84 249.697 9.84C252.097 9.84 254.077 10.416 255.637 11.568C257.221 12.696 258.289 14.316 258.841 16.428H254.413C254.053 15.444 253.477 14.676 252.685 14.124C251.893 13.572 250.897 13.296 249.697 13.296C248.017 13.296 246.673 13.896 245.665 15.096C244.681 16.272 244.189 17.928 244.189 20.064C244.189 22.2 244.681 23.868 245.665 25.068C246.673 26.268 248.017 26.868 249.697 26.868C252.073 26.868 253.645 25.824 254.413 23.736H258.841C258.265 25.752 257.185 27.36 255.601 28.56C254.017 29.736 252.049 30.324 249.697 30.324C247.801 30.324 246.121 29.904 244.657 29.064C243.193 28.2 242.041 27 241.201 25.464C240.385 23.904 239.977 22.104 239.977 20.064ZM261.563 20.064C261.563 18.024 261.971 16.236 262.787 14.7C263.627 13.14 264.779 11.94 266.243 11.1C267.707 10.26 269.387 9.84 271.283 9.84C273.683 9.84 275.663 10.416 277.223 11.568C278.807 12.696 279.875 14.316 280.427 16.428H275.999C275.639 15.444 275.063 14.676 274.271 14.124C273.479 13.572 272.483 13.296 271.283 13.296C269.603 13.296 268.259 13.896 267.251 15.096C266.267 16.272 265.775 17.928 265.775 20.064C265.775 22.2 266.267 23.868 267.251 25.068C268.259 26.268 269.603 26.868 271.283 26.868C273.659 26.868 275.231 25.824 275.999 23.736H280.427C279.851 25.752 278.771 27.36 277.187 28.56C275.603 29.736 273.635 30.324 271.283 30.324C269.387 30.324 267.707 29.904 266.243 29.064C264.779 28.2 263.627 27 262.787 25.464C261.971 23.904 261.563 22.104 261.563 20.064ZM293.12 30.324C291.248 30.324 289.556 29.904 288.044 29.064C286.532 28.2 285.344 27 284.48 25.464C283.616 23.904 283.184 22.104 283.184 20.064C283.184 18.048 283.628 16.26 284.516 14.7C285.404 13.14 286.616 11.94 288.152 11.1C289.688 10.26 291.404 9.84 293.3 9.84C295.196 9.84 296.912 10.26 298.448 11.1C299.984 11.94 301.196 13.14 302.084 14.7C302.972 16.26 303.416 18.048 303.416 20.064C303.416 22.08 302.96 23.868 302.048 25.428C301.136 26.988 299.888 28.2 298.304 29.064C296.744 29.904 295.016 30.324 293.12 30.324ZM293.12 26.76C294.176 26.76 295.16 26.508 296.072 26.004C297.008 25.5 297.764 24.744 298.34 23.736C298.916 22.728 299.204 21.504 299.204 20.064C299.204 18.624 298.928 17.412 298.376 16.428C297.824 15.42 297.092 14.664 296.18 14.16C295.268 13.656 294.284 13.404 293.228 13.404C292.172 13.404 291.188 13.656 290.276 14.16C289.388 14.664 288.68 15.42 288.152 16.428C287.624 17.412 287.36 18.624 287.36 20.064C287.36 22.2 287.9 23.856 288.98 25.032C290.084 26.184 291.464 26.76 293.12 26.76ZM325.437 10.164V30H321.333V27.66C320.685 28.476 319.833 29.124 318.777 29.604C317.745 30.06 316.641 30.288 315.465 30.288C313.905 30.288 312.501 29.964 311.253 29.316C310.029 28.668 309.057 27.708 308.337 26.436C307.641 25.164 307.293 23.628 307.293 21.828V10.164H311.361V21.216C311.361 22.992 311.805 24.36 312.693 25.32C313.581 26.256 314.793 26.724 316.329 26.724C317.865 26.724 319.077 26.256 319.965 25.32C320.877 24.36 321.333 22.992 321.333 21.216V10.164H325.437ZM340.86 9.84C342.42 9.84 343.812 10.164 345.036 10.812C346.284 11.46 347.256 12.42 347.952 13.692C348.648 14.964 348.996 16.5 348.996 18.3V30H344.928V18.912C344.928 17.136 344.484 15.78 343.596 14.844C342.708 13.884 341.496 13.404 339.96 13.404C338.424 13.404 337.2 13.884 336.288 14.844C335.4 15.78 334.956 17.136 334.956 18.912V30H330.852V10.164H334.956V12.432C335.628 11.616 336.48 10.98 337.512 10.524C338.568 10.068 339.684 9.84 340.86 9.84ZM359.019 13.512V24.492C359.019 25.236 359.187 25.776 359.523 26.112C359.883 26.424 360.483 26.58 361.323 26.58H363.843V30H360.603C358.755 30 357.339 29.568 356.355 28.704C355.371 27.84 354.879 26.436 354.879 24.492V13.512H352.539V10.164H354.879V5.232H359.019V10.164H363.843V13.512H359.019Z" fill="white"/>
</svg>
