<svg width="33" height="33" viewBox="0 0 33 33" fill="none" xmlns="http://www.w3.org/2000/svg">
<g clip-path="url(#clip0_4_189)">
<path d="M16.4999 18.7857C19.6558 18.7857 22.2142 16.2273 22.2142 13.0714C22.2142 9.91551 19.6558 7.35713 16.4999 7.35713C13.344 7.35713 10.7856 9.91551 10.7856 13.0714C10.7856 16.2273 13.344 18.7857 16.4999 18.7857Z" stroke="white" stroke-width="2.28571" stroke-linecap="round" stroke-linejoin="round"/>
<path d="M6.73987 27.7C7.75985 26.0257 9.19338 24.6419 10.9026 23.6819C12.6119 22.7217 14.5394 22.2173 16.4999 22.2173C18.4603 22.2173 20.3878 22.7217 22.0971 23.6819C23.8064 24.6419 25.2398 26.0257 26.2599 27.7" stroke="white" stroke-width="2.28571" stroke-linecap="round" stroke-linejoin="round"/>
<path d="M16.5 31.3571C24.7055 31.3571 31.3571 24.7055 31.3571 16.5C31.3571 8.29462 24.7055 1.64285 16.5 1.64285C8.29459 1.64285 1.64282 8.29462 1.64282 16.5C1.64282 24.7055 8.29459 31.3571 16.5 31.3571Z" stroke="white" stroke-width="2.28571" stroke-linecap="round" stroke-linejoin="round"/>
</g>
<defs>
<clipPath id="clip0_4_189">
<rect width="32" height="32" fill="white" transform="translate(0.5 0.5)"/>
</clipPath>
</defs>
</svg>
