<svg width="33" height="33" viewBox="0 0 33 33" fill="none" xmlns="http://www.w3.org/2000/svg">
<path d="M16.4964 0.500014C12.6986 0.496732 9.02375 1.88147 6.13032 4.40611C3.2369 6.93075 1.31398 10.4303 0.706102 14.2777C0.098222 18.1251 0.845112 22.069 2.81295 25.4026C4.78078 28.7363 7.84096 31.2418 11.4452 32.4704C12.2424 32.6122 12.4956 32.1314 12.4956 31.6984C12.4956 31.3057 12.5043 30.2188 12.4956 28.8466C8.04811 29.835 7.1301 26.6846 7.1301 26.6846C6.83656 25.6929 6.20698 24.8418 5.3552 24.2852C3.90472 23.2669 5.46431 23.2863 5.46431 23.2863C5.9708 23.3578 6.45468 23.5471 6.87903 23.8397C7.30337 24.1324 7.65696 24.5207 7.91281 24.975C8.1293 25.3796 8.42178 25.7362 8.77336 26.0242C9.12493 26.3121 9.52862 26.5257 9.9611 26.6526C10.3936 26.7795 10.8463 26.8172 11.293 26.7635C11.7398 26.7098 12.1717 26.5657 12.5639 26.3397C12.6373 25.5103 12.9969 24.7351 13.578 24.1538C10.0296 23.7372 6.29793 22.3322 6.29793 16.0432C6.27538 14.4133 6.86513 12.8371 7.94481 11.6416C7.45563 10.2273 7.51131 8.67464 8.10048 7.3011C8.10048 7.3011 9.44475 6.86064 12.4941 8.98532C15.1144 8.24771 17.8798 8.24771 20.5001 8.98532C23.5581 6.86213 24.8908 7.3011 24.8908 7.3011C25.48 8.67476 25.5367 10.2276 25.0494 11.6416C26.1293 12.8379 26.7182 14.4156 26.6933 16.0462C26.6933 22.3516 22.9558 23.7357 19.3959 24.1388C19.7786 24.5333 20.0743 25.0075 20.2631 25.5294C20.4518 26.0513 20.5292 26.6086 20.4899 27.1639V31.7044C20.4899 32.1434 20.7474 32.6286 21.5592 32.4689C25.1633 31.2392 28.2229 28.7325 30.1898 25.398C32.1567 22.0635 32.9023 18.1191 32.2929 14.2717C31.6836 10.4243 29.7593 6.92527 26.8646 4.40171C23.97 1.87814 20.2944 0.494956 16.4964 0.500014Z" fill="#8E98A2"/>
</svg>
