<svg width="33" height="33" viewBox="0 0 33 33" fill="none" xmlns="http://www.w3.org/2000/svg">
<path fill-rule="evenodd" clip-rule="evenodd" d="M10.1 0.5C7.55392 0.5 5.11212 1.51143 3.31178 3.31178C1.51143 5.11212 0.5 7.55392 0.5 10.1V22.9C0.5 25.4461 1.51143 27.8879 3.31178 29.6882C5.11212 31.4886 7.55392 32.5 10.1 32.5H22.9C25.4461 32.5 27.8879 31.4886 29.6882 29.6882C31.4886 27.8879 32.5 25.4461 32.5 22.9V10.1C32.5 7.55392 31.4886 5.11212 29.6882 3.31178C27.8879 1.51143 25.4461 0.5 22.9 0.5H10.1ZM2.63333 10.1C2.63333 5.97556 5.97556 2.63333 10.1 2.63333H22.9C27.0244 2.63333 30.3667 5.97556 30.3667 10.1V22.9C30.3667 27.0244 27.0244 30.3667 22.9 30.3667H10.1C8.11972 30.3667 6.22054 29.58 4.82027 28.1797C3.42 26.7795 2.63333 24.8803 2.63333 22.9V10.1ZM27.1667 8.32222C27.1667 8.79372 26.9794 9.2459 26.646 9.5793C26.3126 9.9127 25.8604 10.1 25.3889 10.1C24.9174 10.1 24.4652 9.9127 24.1318 9.5793C23.7984 9.2459 23.6111 8.79372 23.6111 8.32222C23.6111 7.85073 23.7984 7.39854 24.1318 7.06514C24.4652 6.73175 24.9174 6.54444 25.3889 6.54444C25.8604 6.54444 26.3126 6.73175 26.646 7.06514C26.9794 7.39854 27.1667 7.85073 27.1667 8.32222ZM16.5 10.4556C15.7062 10.4556 14.9202 10.6119 14.1869 10.9157C13.4535 11.2194 12.7872 11.6647 12.2259 12.2259C11.6647 12.7872 11.2194 13.4535 10.9157 14.1869C10.6119 14.9202 10.4556 15.7062 10.4556 16.5C10.4556 17.2938 10.6119 18.0798 10.9157 18.8131C11.2194 19.5465 11.6647 20.2128 12.2259 20.7741C12.7872 21.3353 13.4535 21.7806 14.1869 22.0843C14.9202 22.3881 15.7062 22.5444 16.5 22.5444C18.1031 22.5444 19.6405 21.9076 20.7741 20.7741C21.9076 19.6405 22.5444 18.1031 22.5444 16.5C22.5444 14.8969 21.9076 13.3595 20.7741 12.2259C19.6405 11.0924 18.1031 10.4556 16.5 10.4556ZM8.32222 16.5C8.32222 14.3311 9.18381 12.2511 10.7174 10.7174C12.2511 9.18381 14.3311 8.32222 16.5 8.32222C18.6689 8.32222 20.7489 9.18381 22.2826 10.7174C23.8162 12.2511 24.6778 14.3311 24.6778 16.5C24.6778 18.6689 23.8162 20.7489 22.2826 22.2826C20.7489 23.8162 18.6689 24.6778 16.5 24.6778C14.3311 24.6778 12.2511 23.8162 10.7174 22.2826C9.18381 20.7489 8.32222 18.6689 8.32222 16.5Z" fill="#8E98A2"/>
</svg>
