<svg width="33" height="33" viewBox="0 0 33 33" fill="none" xmlns="http://www.w3.org/2000/svg">
<path fill-rule="evenodd" clip-rule="evenodd" d="M4.13636 7.77273C5.10079 7.77273 6.02571 7.38961 6.70766 6.70766C7.38961 6.02571 7.77273 5.10079 7.77273 4.13636C7.77273 3.17194 7.38961 2.24702 6.70766 1.56507C6.02571 0.883116 5.10079 0.5 4.13636 0.5C3.17194 0.5 2.24702 0.883116 1.56507 1.56507C0.883116 2.24702 0.5 3.17194 0.5 4.13636C0.5 5.10079 0.883116 6.02571 1.56507 6.70766C2.24702 7.38961 3.17194 7.77273 4.13636 7.77273ZM7.77273 32.5V10.6818H0.5V32.5H7.77273ZM10.6818 10.6818H17.2273V13.5124C18.2687 12.1436 20.4942 10.6818 24.5 10.6818C30.7982 10.6818 32.5 16.9655 32.5 20.8636V32.5H25.2273V20.8636C25.2273 19.4091 24.5 16.5 21.5909 16.5C19.5255 16.5 18.0709 17.9662 17.2273 19.3378V32.5H10.6818V10.6818Z" fill="#8E98A2"/>
</svg>
