<svg width="33" height="24" viewBox="0 0 33 24" fill="none" xmlns="http://www.w3.org/2000/svg">
<path fill-rule="evenodd" clip-rule="evenodd" d="M4.40982 0.227295H1.95455C1.56878 0.227295 1.19881 0.380542 0.926026 0.653322C0.653246 0.926102 0.5 1.29607 0.5 1.68184V1.74002L16.5 13.4215L32.5 1.74148V1.68184C32.5 1.29607 32.3468 0.926102 32.074 0.653322C31.8012 0.380542 31.4312 0.227295 31.0455 0.227295H28.5902L16.5 8.83821L4.40982 0.227295ZM24.8302 0.227295L16.5 6.16184L8.16982 0.227295H24.8302ZM32.5 4.44257L28.5 7.36184V23.5H31.0455C31.4312 23.5 31.8012 23.3468 32.074 23.074C32.3468 22.8012 32.5 22.4313 32.5 22.0455V4.44257ZM26.3182 23.5V8.95457L16.5 16.1226L6.68182 8.95603V23.5H26.3182ZM4.5 23.5V7.36184L0.5 4.44257V22.0455C0.5 22.4313 0.653246 22.8012 0.926026 23.074C1.19881 23.3468 1.56878 23.5 1.95455 23.5H4.5Z" fill="#8E98A2"/>
</svg>
