<svg width="33" height="24" viewBox="0 0 33 24" fill="none" xmlns="http://www.w3.org/2000/svg">
<path d="M0.5 21.1504C23.2156 29.2331 29.6462 14.4504 29.4527 7.15041C31.2971 6.69174 32.5 5.53974 32.5 4.35841C30.9756 5.09174 30.18 4.88374 29.4178 4.35841C31.0585 3.33441 30.9756 1.87441 30.9756 0.86641C30.2091 1.23574 28.7895 2.14641 27.1662 2.26374C26.0825 0.709077 23.3567 -0.52959 19.5473 0.86641C15.7378 2.26374 14.9756 5.98908 15.7378 7.85041C10.8622 7.85041 5.07164 3.19441 2.78509 0.86641C0.0461819 4.45041 3.51236 8.00374 5.07164 9.24774C4.03164 9.53308 2.78509 9.24774 2.02436 8.54908C2.02436 12.5371 5.83382 14.1357 7.35673 14.8357H4.31091C4.31091 17.6291 7.86582 18.7931 9.64473 19.0251C8.42582 20.1424 3.51382 21.1531 0.501455 21.1531L0.5 21.1504Z" fill="#8E98A2"/>
</svg>
